<svg width="256" height="256" viewBox="0 0 256 256" fill="none" xmlns="http://www.w3.org/2000/svg">
<circle cx="128" cy="128" r="128" fill="white"/>
<g clip-path="url(#clip0_614_4197)">
<mask id="mask0_614_4197" style="mask-type:alpha" maskUnits="userSpaceOnUse" x="21" y="13" width="230" height="230">
<path d="M250.087 13.5181H21.123V242.482H250.087V13.5181Z" fill="#D9D9D9"/>
</mask>
<g mask="url(#mask0_614_4197)">
<path d="M146.668 191.947L214.69 143.547C225.382 135.939 225.382 120.061 214.69 112.454L146.668 64.0528C134.036 55.0645 116.525 64.0957 116.525 79.5993V128V176.401C116.525 191.904 134.035 200.936 146.668 191.947Z" fill="black"/>
<path fill-rule="evenodd" clip-rule="evenodd" d="M108.893 79.5993C108.893 57.8944 133.407 45.2506 151.092 57.8343L219.113 106.235C219.114 106.235 219.113 106.235 219.113 106.235C234.083 116.885 234.083 139.116 219.113 149.765L151.092 198.166C133.407 210.75 108.893 198.106 108.893 176.401V79.5993ZM142.242 70.2714C134.663 64.8784 124.157 70.2971 124.157 79.5993V176.401C124.157 185.703 134.663 191.122 142.242 185.729L210.264 137.328C216.68 132.764 216.68 123.237 210.265 118.673L142.242 70.2714Z" fill="black"/>
<path fill-rule="evenodd" clip-rule="evenodd" d="M127.141 110.418C127.141 107.257 129.703 104.694 132.865 104.694H189.617C192.779 104.694 195.341 107.257 195.341 110.418C195.341 113.579 192.779 116.142 189.617 116.142H132.865C129.703 116.142 127.141 113.579 127.141 110.418Z" fill="white"/>
<path fill-rule="evenodd" clip-rule="evenodd" d="M161.628 89.5337C164.79 89.5337 167.353 92.0965 167.353 95.2579V110.418C167.353 113.579 164.79 116.142 161.628 116.142C158.467 116.142 155.904 113.579 155.904 110.418V95.2579C155.904 92.0965 158.467 89.5337 161.628 89.5337Z" fill="white"/>
<path fill-rule="evenodd" clip-rule="evenodd" d="M180.97 106.254C184.099 106.703 186.272 109.604 185.822 112.734C184.145 124.419 176.96 135.112 169.384 143.438C161.719 151.861 153.041 158.528 147.263 162.166C144.588 163.85 141.054 163.047 139.369 160.372C137.685 157.697 138.488 154.162 141.163 152.478C146.169 149.327 154.025 143.306 160.916 135.733C167.897 128.062 173.293 119.449 174.49 111.107C174.94 107.977 177.841 105.805 180.97 106.254Z" fill="white"/>
<path fill-rule="evenodd" clip-rule="evenodd" d="M145.846 123C148.607 121.461 152.093 122.453 153.632 125.214C160.356 137.285 173.763 147.875 181.245 152.433C183.944 154.078 184.8 157.6 183.155 160.3C181.51 163 177.988 163.855 175.288 162.21C167.02 157.173 151.727 145.318 143.631 130.786C142.092 128.024 143.084 124.538 145.846 123Z" fill="white"/>
<path d="M76.331 177.929L121.916 144.31C132.257 136.684 132.257 121.224 121.916 113.598L76.331 79.979C63.734 70.6886 45.9258 79.6825 45.9258 95.3348V128.954V162.573C45.9258 178.225 63.734 187.219 76.331 177.929Z" fill="white"/>
<path fill-rule="evenodd" clip-rule="evenodd" d="M80.8623 73.837C63.2264 60.8304 38.2949 73.4219 38.2949 95.3351ZM80.8623 73.837L126.447 107.456C126.447 107.456 126.447 107.456 126.447 107.456C140.924 118.133 140.924 139.776 126.447 150.452L80.8623 184.072C63.2264 197.078 38.2949 184.487 38.2949 162.573V95.3351M71.8023 86.1216C64.2441 80.5475 53.5592 85.9437 53.5592 95.3351V162.573C53.5592 171.965 64.2441 177.361 71.8023 171.787L117.387 138.168C123.592 133.592 123.592 124.316 117.387 119.741L71.8023 86.1216Z" fill="black"/>
<path fill-rule="evenodd" clip-rule="evenodd" d="M64.9297 133.443C64.9297 130.282 67.4925 127.719 70.6538 127.719H90.3175C93.4789 127.719 96.0417 130.282 96.0417 133.443C96.0417 136.604 93.4789 139.167 90.3175 139.167H70.6538C67.4925 139.167 64.9297 136.604 64.9297 133.443Z" fill="black"/>
<path fill-rule="evenodd" clip-rule="evenodd" d="M90.2823 110.778C87.1955 102.504 75.4927 102.504 72.4058 110.778C72.4058 110.778 72.4058 110.778 72.4058 110.778L61.8119 139.172C60.7068 142.134 62.212 145.431 65.1739 146.536C68.1358 147.641 71.4328 146.136 72.5378 143.174L81.3441 119.571L90.1503 143.174C91.2554 146.136 94.5524 147.641 97.5142 146.536C100.476 145.431 101.981 142.134 100.876 139.172L90.2824 110.778C90.2824 110.778 90.2823 110.778 90.2823 110.778Z" fill="black"/>
</g>
</g>
<defs>
<clipPath id="clip0_614_4197">
<rect width="228.964" height="228.964" fill="white" transform="translate(21.123 13.5181)"/>
</clipPath>
</defs>
</svg>
