<svg width="183" height="143" viewBox="0 0 183 143" fill="none" xmlns="http://www.w3.org/2000/svg">
<path d="M102.985 132.106L167.453 86.2343C177.587 79.0246 177.587 63.9757 167.453 56.766L102.985 10.8942C91.0132 2.37554 74.418 10.9349 74.418 25.6284V71.5002V117.372C74.418 132.065 91.013 140.625 102.985 132.106Z" fill="black"/>
<path fill-rule="evenodd" clip-rule="evenodd" d="M67.1836 25.6283C67.1836 5.05755 90.4169 -6.92563 107.178 5.00057L171.645 50.8721C171.645 50.8722 171.645 50.872 171.645 50.8721C185.832 60.9657 185.833 82.0348 171.645 92.1282L107.178 138C90.4167 149.926 67.1836 137.943 67.1836 117.372V25.6283ZM98.7907 16.7878C91.6075 11.6766 81.6503 16.8122 81.6503 25.6283V117.372C81.6503 126.188 91.6073 131.324 98.7907 126.212L163.258 80.3406C169.339 76.0148 169.339 66.9857 163.259 62.6599L98.7907 16.7878Z" fill="black"/>
<path fill-rule="evenodd" clip-rule="evenodd" d="M84.4785 54.8367C84.4785 51.8405 86.9074 49.4116 89.9036 49.4116H143.691C146.687 49.4116 149.116 51.8405 149.116 54.8367C149.116 57.8329 146.687 60.2618 143.691 60.2618H89.9036C86.9074 60.2618 84.4785 57.8329 84.4785 54.8367Z" fill="white"/>
<path fill-rule="evenodd" clip-rule="evenodd" d="M117.165 35.0439C120.161 35.0439 122.59 37.4728 122.59 40.469V54.8368C122.59 57.8329 120.161 60.2618 117.165 60.2618C114.169 60.2618 111.74 57.8329 111.74 54.8368V40.469C111.74 37.4728 114.169 35.0439 117.165 35.0439Z" fill="white"/>
<path fill-rule="evenodd" clip-rule="evenodd" d="M135.496 50.8902C138.462 51.316 140.521 54.0655 140.095 57.0312C138.505 68.1062 131.696 78.2405 124.515 86.1313C117.251 94.1144 109.026 100.433 103.551 103.881C101.015 105.477 97.6656 104.716 96.0692 102.18C94.4729 99.6447 95.2342 96.2951 97.7697 94.6988C102.513 91.7121 109.959 86.0065 116.491 78.8288C123.106 71.5587 128.22 63.3955 129.355 55.4892C129.781 52.5235 132.53 50.4644 135.496 50.8902Z" fill="white"/>
<path fill-rule="evenodd" clip-rule="evenodd" d="M102.206 66.761C104.823 65.3029 108.127 66.2426 109.585 68.86C115.958 80.2998 128.664 90.3371 135.755 94.6568C138.314 96.2156 139.124 99.5535 137.566 102.112C136.007 104.671 132.669 105.482 130.11 103.923C122.274 99.149 107.78 87.9132 100.107 74.1404C98.6486 71.5231 99.5883 68.2192 102.206 66.761Z" fill="white"/>
<path d="M36.3243 118.82L79.5276 86.9575C89.3277 79.73 89.3278 65.0781 79.5276 57.8506L36.3243 25.9881C24.3855 17.1832 7.50781 25.7071 7.50781 40.5416V72.4041V104.267C7.50781 119.101 24.3855 127.625 36.3243 118.82Z" fill="white"/>
<path fill-rule="evenodd" clip-rule="evenodd" d="M40.6185 20.167C23.9042 7.84002 0.275391 19.7736 0.275391 40.5418ZM40.6185 20.167L83.8217 52.0294C83.8217 52.0294 83.8217 52.0294 83.8217 52.0294C97.5421 62.1481 97.5418 82.6607 83.8218 92.7792L40.6185 124.642C23.9042 136.969 0.275391 125.035 0.275391 104.267V40.5418M32.0319 31.8098C24.8687 26.5268 14.7421 31.6411 14.7421 40.5418V104.267C14.7421 113.167 24.8687 118.282 32.0319 112.999L75.2352 81.1364C81.1153 76.7998 81.1153 68.0087 75.2353 63.6723L32.0319 31.8098Z" fill="black"/>
<path fill-rule="evenodd" clip-rule="evenodd" d="M25.5176 76.6585C25.5176 73.6623 27.9465 71.2334 30.9426 71.2334H49.5788C52.575 71.2334 55.0039 73.6623 55.0039 76.6585C55.0039 79.6546 52.575 82.0835 49.5788 82.0835H30.9426C27.9465 82.0835 25.5176 79.6546 25.5176 76.6585Z" fill="black"/>
<path fill-rule="evenodd" clip-rule="evenodd" d="M49.5472 55.1774C46.6217 47.336 35.5304 47.336 32.6048 55.1774C32.6048 55.1775 32.6048 55.1775 32.6048 55.1775L22.5644 82.0881C21.5171 84.8953 22.9437 88.0199 25.7508 89.0673C28.5579 90.1146 31.6826 88.688 32.7299 85.8809L41.076 63.5113L49.4221 85.8809C50.4695 88.688 53.5942 90.1146 56.4013 89.0673C59.2084 88.0199 60.635 84.8953 59.5877 82.0881L49.5473 55.1775C49.5473 55.1775 49.5473 55.1775 49.5472 55.1774Z" fill="black"/>
</svg>
